<?xml version="1.0" encoding="UTF-8" standalone="no"?>
<!-- Created with Inkscape (http://www.inkscape.org/) -->

<svg
   width="512"
   height="512"
   viewBox="0 0 512 512"
   version="1.1"
   id="svg5"
   xml:space="preserve"
   inkscape:version="1.2.1 (9c6d41e, 2022-07-14)"
   sodipodi:docname="favicon-512x512-n.svg"
   inkscape:export-filename="apple-touch-icon.png"
   inkscape:export-xdpi="33.75"
   inkscape:export-ydpi="33.75"
   xmlns:inkscape="http://www.inkscape.org/namespaces/inkscape"
   xmlns:sodipodi="http://sodipodi.sourceforge.net/DTD/sodipodi-0.dtd"
   xmlns="http://www.w3.org/2000/svg"
   xmlns:svg="http://www.w3.org/2000/svg"><sodipodi:namedview
     id="namedview7"
     pagecolor="#ffffff"
     bordercolor="#000000"
     borderopacity="0.25"
     inkscape:showpageshadow="2"
     inkscape:pageopacity="0.0"
     inkscape:pagecheckerboard="0"
     inkscape:deskcolor="#d1d1d1"
     inkscape:document-units="px"
     showgrid="false"
     showguides="true"
     inkscape:zoom="1.7128906"
     inkscape:cx="253.37286"
     inkscape:cy="254.24857"
     inkscape:window-width="1652"
     inkscape:window-height="1027"
     inkscape:window-x="204"
     inkscape:window-y="25"
     inkscape:window-maximized="0"
     inkscape:current-layer="layer2" /><defs
     id="defs2"><rect
       x="223.59863"
       y="206.08438"
       width="266.21665"
       height="290.7366"
       id="rect400" /></defs><g
     inkscape:label="Layer 1"
     inkscape:groupmode="layer"
     id="layer1"><path
       id="path1422"
       style="fill:#ffc022"
       d="M 256,2.9199219 A 256,256 0 0 0 0,258.91992 256,256 0 0 0 178.79492,502.6543 l 160.02344,-160.02344 97.29492,97.29492 A 256,256 0 0 0 512,258.91992 256,256 0 0 0 507.33203,210.42188 l -133.32031,133.32031 -98.38281,-98.38281 18.88671,-18.88477 79.4961,79.49609 125.57422,-125.57422 A 256,256 0 0 0 256,2.9199219 Z M 338.81836,380.40234 209.16797,510.05273 A 256,256 0 0 0 256,514.91992 256,256 0 0 0 416.30469,457.88867 Z"
       sodipodi:insensitive="true" /></g><g
     inkscape:groupmode="layer"
     id="layer2"
     inkscape:label="Layer 2" /></svg>
