<?xml version="1.0" encoding="UTF-8" standalone="no"?>
<!-- Created with Inkscape (http://www.inkscape.org/) -->

<svg
   width="512"
   height="512"
   viewBox="0 0 512 512"
   version="1.1"
   id="svg5"
   inkscape:version="1.2.1 (9c6d41e, 2022-07-14)"
   sodipodi:docname="favicon-512x512.svg"
   xml:space="preserve"
   xmlns:inkscape="http://www.inkscape.org/namespaces/inkscape"
   xmlns:sodipodi="http://sodipodi.sourceforge.net/DTD/sodipodi-0.dtd"
   xmlns="http://www.w3.org/2000/svg"
   xmlns:svg="http://www.w3.org/2000/svg"><sodipodi:namedview
     id="namedview7"
     pagecolor="#ffffff"
     bordercolor="#000000"
     borderopacity="0.25"
     inkscape:showpageshadow="2"
     inkscape:pageopacity="0.0"
     inkscape:pagecheckerboard="0"
     inkscape:deskcolor="#d1d1d1"
     inkscape:document-units="px"
     showgrid="false"
     inkscape:zoom="1.6582031"
     inkscape:cx="216.19788"
     inkscape:cy="254.19081"
     inkscape:window-width="1652"
     inkscape:window-height="1027"
     inkscape:window-x="204"
     inkscape:window-y="25"
     inkscape:window-maximized="0"
     inkscape:current-layer="layer1"><inkscape:grid
       type="xygrid"
       id="grid4494" /></sodipodi:namedview><defs
     id="defs2"><rect
       x="44.62662"
       y="167.04829"
       width="358.21908"
       height="220.72085"
       id="rect1006" /></defs><g
     inkscape:label="Layer 1"
     inkscape:groupmode="layer"
     id="layer1"><path
       id="path115"
       style="fill:#f9c412;fill-opacity:1;stroke-width:0.825594"
       d="M 208.66016 1.8085938 A 206.24734 213.78563 0 0 0 2.4121094 215.5957 A 206.24734 213.78563 0 0 0 110.25781 402.85938 L 260.94531 238.52148 L 366.18945 353.29883 A 206.24734 213.78563 0 0 0 414.90625 215.5957 A 206.24734 213.78563 0 0 0 396.54492 127.49805 L 290.90234 246.03906 L 196.9082 140.56641 L 214.95117 120.32031 L 290.90234 205.54492 L 383.30078 101.86328 A 206.24734 213.78563 0 0 0 208.66016 1.8085938 z M 260.94531 282.65625 L 138.58984 416.0957 A 206.24734 213.78563 0 0 0 208.66016 429.38086 A 206.24734 213.78563 0 0 0 345.71094 375.10156 L 260.94531 282.65625 z M 364.97266 354.98438 L 362.13477 358.08008 A 206.24734 213.78563 0 0 0 364.97266 354.98438 z " /><text
       xml:space="preserve"
       id="text1004"
       style="white-space:pre;shape-inside:url(#rect1006);display:inline;fill:#005c94;fill-opacity:1" /></g></svg>
