<?xml version="1.0" encoding="UTF-8" standalone="no"?>
<!-- Created with Inkscape (http://www.inkscape.org/) -->

<svg
   width="512"
   height="512"
   viewBox="0 0 512 512"
   version="1.1"
   id="svg5"
   inkscape:version="1.2.1 (9c6d41e, 2022-07-14)"
   sodipodi:docname="favicon-512x512.svg"
   xml:space="preserve"
   inkscape:export-filename="favicon.ico"
   inkscape:export-xdpi="9"
   inkscape:export-ydpi="9"
   xmlns:inkscape="http://www.inkscape.org/namespaces/inkscape"
   xmlns:sodipodi="http://sodipodi.sourceforge.net/DTD/sodipodi-0.dtd"
   xmlns="http://www.w3.org/2000/svg"
   xmlns:svg="http://www.w3.org/2000/svg"><sodipodi:namedview
     id="namedview7"
     pagecolor="#ffffff"
     bordercolor="#000000"
     borderopacity="0.25"
     inkscape:showpageshadow="2"
     inkscape:pageopacity="0.0"
     inkscape:pagecheckerboard="0"
     inkscape:deskcolor="#d1d1d1"
     inkscape:document-units="px"
     showgrid="false"
     inkscape:zoom="1.6582031"
     inkscape:cx="216.19788"
     inkscape:cy="254.19081"
     inkscape:window-width="1652"
     inkscape:window-height="1027"
     inkscape:window-x="204"
     inkscape:window-y="25"
     inkscape:window-maximized="0"
     inkscape:current-layer="layer1"><inkscape:grid
       type="xygrid"
       id="grid4494" /></sodipodi:namedview><defs
     id="defs2" /><g
     inkscape:label="Layer 1"
     inkscape:groupmode="layer"
     id="layer1"><path
       id="path115"
       style="fill:#f9c412;fill-opacity:1;stroke-width:0.825594"
       d="M 252.08066,35.58009 A 206.24734,213.78563 0 0 0 45.832605,249.3672 206.24734,213.78563 0 0 0 153.67831,436.63088 l 150.6875,-164.3379 105.24414,114.77735 A 206.24734,213.78563 0 0 0 458.32675,249.3672 206.24734,213.78563 0 0 0 439.96542,161.26955 L 334.32284,279.81056 240.3287,174.33791 l 18.04297,-20.2461 75.95117,85.22461 92.39844,-103.68164 A 206.24734,213.78563 0 0 0 252.08066,35.58009 Z M 304.36581,316.42775 182.01034,449.8672 a 206.24734,213.78563 0 0 0 70.07032,13.28516 206.24734,213.78563 0 0 0 137.05078,-54.2793 z m 104.02735,72.32813 -2.83789,3.0957 a 206.24734,213.78563 0 0 0 2.83789,-3.0957 z" /></g></svg>
